<?xml version="1.0" encoding="UTF-8"?>
<svg version="1.1" xmlns="http://www.w3.org/2000/svg" width="243" height="208">
<path d="M0,0 L7,0 L7,1 L10,1 L10,2 L12,2 L12,3 L14,3 L14,4 L16,4 L16,5 L17,5 L17,6 L18,6 L18,7 L20,7 L20,8 L21,8 L21,9 L22,9 L22,10 L23,10 L23,11 L24,11 L24,12 L25,12 L25,13 L26,13 L26,14 L27,14 L27,15 L28,15 L28,16 L29,16 L29,17 L30,17 L30,19 L31,19 L31,20 L32,20 L32,21 L33,21 L33,22 L34,22 L34,24 L35,24 L35,25 L36,25 L36,27 L37,27 L37,28 L38,28 L38,30 L39,30 L39,32 L40,32 L40,33 L41,33 L41,35 L42,35 L42,37 L43,37 L43,39 L44,39 L44,41 L45,41 L45,43 L46,43 L46,45 L47,45 L47,47 L48,47 L48,50 L49,50 L49,52 L50,52 L50,56 L51,56 L51,58 L52,58 L52,63 L53,63 L53,67 L54,67 L54,87 L53,87 L53,89 L52,89 L52,91 L51,91 L51,92 L50,92 L50,93 L51,93 L51,94 L53,94 L53,95 L54,95 L54,96 L55,96 L55,97 L57,97 L57,98 L58,98 L58,99 L60,99 L60,100 L61,100 L61,101 L62,101 L62,102 L63,102 L63,103 L65,103 L65,104 L67,104 L67,102 L66,102 L66,101 L65,101 L65,99 L64,99 L64,97 L63,97 L63,87 L64,87 L64,85 L65,85 L65,83 L66,83 L66,82 L67,82 L67,81 L68,81 L68,80 L69,80 L69,79 L70,79 L70,78 L72,78 L72,77 L75,77 L75,76 L83,76 L83,77 L86,77 L86,78 L88,78 L88,79 L89,79 L89,80 L90,80 L90,81 L91,81 L91,82 L92,82 L92,83 L93,83 L93,85 L94,85 L94,87 L95,87 L95,97 L94,97 L94,100 L93,100 L93,101 L92,101 L92,103 L91,103 L91,104 L90,104 L90,105 L88,105 L88,106 L87,106 L87,107 L84,107 L84,108 L74,108 L74,107 L71,107 L71,106 L70,106 L70,105 L69,105 L69,104 L68,104 L68,106 L69,106 L69,107 L70,107 L70,108 L71,108 L71,109 L72,109 L72,110 L73,110 L73,111 L75,111 L75,112 L76,112 L76,113 L77,113 L77,114 L78,114 L78,115 L79,115 L79,116 L80,116 L80,117 L81,117 L81,118 L82,118 L82,119 L83,119 L83,120 L84,120 L84,121 L85,121 L85,122 L86,122 L86,123 L87,123 L87,124 L88,124 L88,125 L89,125 L89,127 L90,127 L90,128 L91,128 L91,129 L92,129 L92,131 L93,131 L93,132 L94,132 L94,134 L95,134 L95,137 L96,137 L96,142 L95,142 L95,143 L94,143 L94,144 L93,144 L93,145 L92,145 L92,146 L89,146 L89,147 L86,147 L86,150 L87,150 L87,152 L88,152 L88,156 L87,156 L87,158 L86,158 L86,159 L85,159 L85,160 L83,160 L83,161 L79,161 L79,162 L77,162 L77,163 L78,163 L78,165 L79,165 L79,168 L80,168 L80,170 L79,170 L79,173 L78,173 L78,174 L76,174 L76,175 L75,175 L75,176 L58,176 L58,175 L53,175 L53,174 L49,174 L49,173 L45,173 L45,172 L41,172 L41,171 L39,171 L39,170 L35,170 L35,169 L33,169 L33,168 L29,168 L29,167 L27,167 L27,166 L24,166 L24,165 L22,165 L22,164 L19,164 L19,163 L17,163 L17,162 L14,162 L14,161 L12,161 L12,160 L9,160 L9,159 L7,159 L7,158 L5,158 L5,157 L3,157 L3,156 L0,156 L0,155 L-2,155 L-2,154 L-4,154 L-4,153 L-6,153 L-6,152 L-8,152 L-8,151 L-10,151 L-10,150 L-12,150 L-12,149 L-14,149 L-14,148 L-16,148 L-16,147 L-18,147 L-18,146 L-20,146 L-20,145 L-22,145 L-22,144 L-24,144 L-24,143 L-26,143 L-26,142 L-28,142 L-28,141 L-30,141 L-30,140 L-31,140 L-31,139 L-33,139 L-33,138 L-35,138 L-35,137 L-37,137 L-37,136 L-39,136 L-39,135 L-40,135 L-40,134 L-42,134 L-42,133 L-44,133 L-44,132 L-46,132 L-46,131 L-47,131 L-47,130 L-49,130 L-49,129 L-51,129 L-51,128 L-52,128 L-52,127 L-54,127 L-54,126 L-56,126 L-56,125 L-57,125 L-57,124 L-59,124 L-59,123 L-60,123 L-60,122 L-62,122 L-62,121 L-64,121 L-64,120 L-65,120 L-65,119 L-67,119 L-67,118 L-68,118 L-68,117 L-70,117 L-70,116 L-71,116 L-71,115 L-73,115 L-73,114 L-74,114 L-74,113 L-76,113 L-76,112 L-77,112 L-77,111 L-79,111 L-79,110 L-80,110 L-80,109 L-81,109 L-81,108 L-83,108 L-83,107 L-84,107 L-84,106 L-85,106 L-85,105 L-87,105 L-87,104 L-88,104 L-88,103 L-90,103 L-90,102 L-91,102 L-91,101 L-92,101 L-92,100 L-93,100 L-93,99 L-95,99 L-95,98 L-96,98 L-96,97 L-97,97 L-97,96 L-98,96 L-98,95 L-100,95 L-100,94 L-101,94 L-101,93 L-102,93 L-102,92 L-103,92 L-103,91 L-104,91 L-104,90 L-105,90 L-105,89 L-106,89 L-106,88 L-107,88 L-107,87 L-108,87 L-108,86 L-109,86 L-109,85 L-110,85 L-110,84 L-111,84 L-111,83 L-112,83 L-112,82 L-113,82 L-113,81 L-114,81 L-114,80 L-115,80 L-115,79 L-116,79 L-116,78 L-117,78 L-117,77 L-118,77 L-118,75 L-119,75 L-119,74 L-120,74 L-120,72 L-121,72 L-121,71 L-122,71 L-122,69 L-123,69 L-123,61 L-122,61 L-122,60 L-121,60 L-121,59 L-120,59 L-120,58 L-116,58 L-116,57 L-113,57 L-113,55 L-114,55 L-114,53 L-115,53 L-115,46 L-114,46 L-114,45 L-113,45 L-113,44 L-111,44 L-111,43 L-107,43 L-107,42 L-105,42 L-105,40 L-106,40 L-106,38 L-107,38 L-107,32 L-106,32 L-106,31 L-105,31 L-105,30 L-104,30 L-104,29 L-102,29 L-102,28 L-98,28 L-98,27 L-92,27 L-92,28 L-87,28 L-87,24 L-86,24 L-86,22 L-84,22 L-84,21 L-82,21 L-82,20 L-79,20 L-79,21 L-77,21 L-77,22 L-76,22 L-76,23 L-75,23 L-75,24 L-74,24 L-74,31 L-72,31 L-72,32 L-69,32 L-69,33 L-65,33 L-65,34 L-62,34 L-62,35 L-59,35 L-59,36 L-57,36 L-57,37 L-54,37 L-54,38 L-51,38 L-51,39 L-49,39 L-49,40 L-46,40 L-46,41 L-44,41 L-44,42 L-41,42 L-41,43 L-39,43 L-39,44 L-36,44 L-36,45 L-34,45 L-34,46 L-32,46 L-32,47 L-30,47 L-30,48 L-27,48 L-27,47 L-26,47 L-26,46 L-25,46 L-25,44 L-24,44 L-24,42 L-23,42 L-23,40 L-22,40 L-22,38 L-21,38 L-21,36 L-20,36 L-20,34 L-19,34 L-19,32 L-18,32 L-18,30 L-17,30 L-17,28 L-16,28 L-16,25 L-15,25 L-15,23 L-14,23 L-14,21 L-13,21 L-13,19 L-12,19 L-12,17 L-11,17 L-11,15 L-10,15 L-10,13 L-9,13 L-9,11 L-8,11 L-8,9 L-7,9 L-7,7 L-6,7 L-6,5 L-5,5 L-5,4 L-4,4 L-4,3 L-3,3 L-3,2 L-2,2 L-2,1 L0,1 Z M0,2 L0,3 L-2,3 L-2,4 L-3,4 L-3,5 L-4,5 L-4,7 L-5,7 L-5,9 L-6,9 L-6,12 L-7,12 L-7,26 L-6,26 L-6,31 L-5,31 L-5,36 L-4,36 L-4,39 L-3,39 L-3,42 L-2,42 L-2,45 L-1,45 L-1,47 L0,47 L0,50 L1,50 L1,52 L2,52 L2,54 L3,54 L3,56 L4,56 L4,58 L5,58 L5,60 L6,60 L6,62 L7,62 L7,63 L8,63 L8,65 L9,65 L9,67 L10,67 L10,68 L11,68 L11,70 L12,70 L12,71 L13,71 L13,73 L14,73 L14,74 L15,74 L15,75 L16,75 L16,77 L17,77 L17,78 L18,78 L18,79 L19,79 L19,80 L20,80 L20,81 L21,81 L21,82 L22,82 L22,83 L23,83 L23,84 L24,84 L24,85 L25,85 L25,86 L26,86 L26,87 L27,87 L27,88 L28,88 L28,89 L30,89 L30,90 L31,90 L31,91 L33,91 L33,92 L35,92 L35,93 L37,93 L37,94 L47,94 L47,93 L48,93 L48,92 L49,92 L49,91 L50,91 L50,89 L51,89 L51,87 L52,87 L52,81 L53,81 L53,74 L52,74 L52,66 L51,66 L51,62 L50,62 L50,58 L49,58 L49,55 L48,55 L48,52 L47,52 L47,50 L46,50 L46,47 L45,47 L45,45 L44,45 L44,43 L43,43 L43,41 L42,41 L42,39 L41,39 L41,37 L40,37 L40,35 L39,35 L39,33 L38,33 L38,32 L37,32 L37,30 L36,30 L36,29 L35,29 L35,27 L34,27 L34,25 L33,25 L33,24 L32,24 L32,23 L31,23 L31,21 L30,21 L30,20 L29,20 L29,19 L28,19 L28,18 L27,18 L27,16 L26,16 L26,15 L25,15 L25,14 L24,14 L24,13 L23,13 L23,12 L22,12 L22,11 L21,11 L21,10 L19,10 L19,9 L18,9 L18,8 L17,8 L17,7 L16,7 L16,6 L14,6 L14,5 L12,5 L12,4 L10,4 L10,3 L7,3 L7,2 Z M-10,17 L-10,19 L-11,19 L-11,21 L-12,21 L-12,23 L-13,23 L-13,25 L-14,25 L-14,27 L-15,27 L-15,29 L-16,29 L-16,32 L-17,32 L-17,34 L-18,34 L-18,36 L-19,36 L-19,38 L-20,38 L-20,40 L-21,40 L-21,42 L-22,42 L-22,44 L-23,44 L-23,46 L-24,46 L-24,49 L-25,49 L-25,59 L-24,59 L-24,64 L-23,64 L-23,66 L-22,66 L-22,69 L-21,69 L-21,71 L-20,71 L-20,72 L-19,72 L-19,74 L-18,74 L-18,76 L-17,76 L-17,77 L-16,77 L-16,78 L-15,78 L-15,80 L-14,80 L-14,81 L-13,81 L-13,82 L-12,82 L-12,83 L-11,83 L-11,84 L-9,84 L-9,85 L-8,85 L-8,86 L-5,86 L-5,87 L0,87 L0,88 L6,88 L6,89 L11,89 L11,90 L18,90 L18,91 L23,91 L23,92 L29,92 L29,91 L28,91 L28,90 L27,90 L27,89 L26,89 L26,88 L24,88 L24,87 L23,87 L23,86 L22,86 L22,85 L21,85 L21,84 L20,84 L20,83 L19,83 L19,82 L18,82 L18,80 L17,80 L17,79 L16,79 L16,78 L15,78 L15,77 L14,77 L14,76 L13,76 L13,74 L12,74 L12,73 L11,73 L11,72 L10,72 L10,70 L9,70 L9,69 L8,69 L8,67 L7,67 L7,65 L6,65 L6,64 L5,64 L5,62 L4,62 L4,60 L3,60 L3,58 L2,58 L2,56 L1,56 L1,54 L0,54 L0,52 L-1,52 L-1,50 L-2,50 L-2,47 L-3,47 L-3,44 L-4,44 L-4,42 L-5,42 L-5,38 L-6,38 L-6,35 L-7,35 L-7,30 L-8,30 L-8,25 L-9,25 L-9,17 Z M-101,29 L-101,30 L-103,30 L-103,31 L-104,31 L-104,32 L-105,32 L-105,34 L-106,34 L-106,35 L-105,35 L-105,39 L-104,39 L-104,41 L-103,41 L-103,42 L-98,42 L-98,43 L-92,43 L-92,44 L-87,44 L-87,45 L-83,45 L-83,46 L-79,46 L-79,47 L-77,47 L-77,48 L-73,48 L-73,49 L-70,49 L-70,50 L-67,50 L-67,51 L-64,51 L-64,52 L-61,52 L-61,53 L-59,53 L-59,54 L-56,54 L-56,55 L-54,55 L-54,56 L-51,56 L-51,57 L-49,57 L-49,58 L-47,58 L-47,59 L-42,59 L-42,58 L-41,58 L-41,57 L-39,57 L-39,56 L-38,56 L-38,55 L-37,55 L-37,54 L-35,54 L-35,53 L-34,53 L-34,52 L-33,52 L-33,51 L-31,51 L-31,50 L-30,50 L-30,49 L-31,49 L-31,48 L-33,48 L-33,47 L-35,47 L-35,46 L-38,46 L-38,45 L-40,45 L-40,44 L-43,44 L-43,43 L-45,43 L-45,42 L-48,42 L-48,41 L-50,41 L-50,40 L-53,40 L-53,39 L-55,39 L-55,38 L-58,38 L-58,37 L-61,37 L-61,36 L-64,36 L-64,35 L-67,35 L-67,34 L-71,34 L-71,33 L-74,33 L-74,32 L-76,32 L-76,33 L-78,33 L-78,34 L-84,34 L-84,33 L-85,33 L-85,32 L-86,32 L-86,31 L-87,31 L-87,30 L-88,30 L-88,29 Z M-110,44 L-110,45 L-112,45 L-112,46 L-113,46 L-113,48 L-114,48 L-114,51 L-113,51 L-113,54 L-112,54 L-112,56 L-111,56 L-111,57 L-105,57 L-105,58 L-99,58 L-99,59 L-94,59 L-94,60 L-91,60 L-91,61 L-88,61 L-88,60 L-89,60 L-89,59 L-90,59 L-90,58 L-91,58 L-91,57 L-92,57 L-92,56 L-90,56 L-90,57 L-89,57 L-89,58 L-88,58 L-88,59 L-87,59 L-87,60 L-86,60 L-86,61 L-85,61 L-85,62 L-84,62 L-84,63 L-80,63 L-80,64 L-78,64 L-78,65 L-75,65 L-75,66 L-72,66 L-72,67 L-69,67 L-69,68 L-67,68 L-67,69 L-64,69 L-64,70 L-62,70 L-62,71 L-58,71 L-58,70 L-57,70 L-57,69 L-56,69 L-56,68 L-55,68 L-55,67 L-53,67 L-53,66 L-52,66 L-52,65 L-51,65 L-51,64 L-49,64 L-49,63 L-48,63 L-48,62 L-47,62 L-47,61 L-45,61 L-45,60 L-48,60 L-48,59 L-50,59 L-50,58 L-53,58 L-53,57 L-55,57 L-55,56 L-58,56 L-58,55 L-60,55 L-60,54 L-63,54 L-63,53 L-66,53 L-66,52 L-69,52 L-69,51 L-72,51 L-72,50 L-75,50 L-75,49 L-78,49 L-78,48 L-82,48 L-82,47 L-85,47 L-85,46 L-90,46 L-90,45 L-95,45 L-95,44 L-101,44 L-101,46 L-100,46 L-100,47 L-99,47 L-99,48 L-98,48 L-98,49 L-97,49 L-97,50 L-96,50 L-96,51 L-95,51 L-95,52 L-94,52 L-94,54 L-95,54 L-95,53 L-96,53 L-96,52 L-97,52 L-97,51 L-98,51 L-98,50 L-99,50 L-99,49 L-100,49 L-100,48 L-101,48 L-101,47 L-102,47 L-102,45 L-103,45 L-103,44 Z M-118,59 L-118,60 L-120,60 L-120,61 L-121,61 L-121,63 L-122,63 L-122,66 L-121,66 L-121,69 L-120,69 L-120,71 L-119,71 L-119,73 L-118,73 L-118,74 L-117,74 L-117,76 L-116,76 L-116,77 L-115,77 L-115,78 L-114,78 L-114,79 L-113,79 L-113,80 L-112,80 L-112,81 L-111,81 L-111,82 L-110,82 L-110,83 L-109,83 L-109,84 L-108,84 L-108,85 L-107,85 L-107,86 L-106,86 L-106,87 L-105,87 L-105,88 L-104,88 L-104,89 L-103,89 L-103,90 L-102,90 L-102,91 L-101,91 L-101,92 L-100,92 L-100,93 L-99,93 L-99,94 L-97,94 L-97,95 L-96,95 L-96,96 L-95,96 L-95,97 L-94,97 L-94,98 L-92,98 L-92,99 L-91,99 L-91,100 L-90,100 L-90,101 L-88,101 L-88,102 L-87,102 L-87,103 L-86,103 L-86,104 L-84,104 L-84,105 L-83,105 L-83,106 L-82,106 L-82,107 L-80,107 L-80,108 L-79,108 L-79,109 L-77,109 L-77,110 L-76,110 L-76,111 L-75,111 L-75,112 L-73,112 L-73,113 L-72,113 L-72,114 L-70,114 L-70,115 L-69,115 L-69,116 L-67,116 L-67,117 L-66,117 L-66,118 L-64,118 L-64,119 L-62,119 L-62,120 L-61,120 L-61,121 L-59,121 L-59,122 L-58,122 L-58,123 L-56,123 L-56,124 L-55,124 L-55,125 L-53,125 L-53,126 L-51,126 L-51,127 L-50,127 L-50,128 L-48,128 L-48,129 L-46,129 L-46,130 L-44,130 L-44,131 L-43,131 L-43,132 L-41,132 L-41,133 L-39,133 L-39,134 L-37,134 L-37,135 L-36,135 L-36,136 L-34,136 L-34,137 L-32,137 L-32,138 L-30,138 L-30,139 L-28,139 L-28,140 L-26,140 L-26,141 L-25,141 L-25,142 L-23,142 L-23,143 L-21,143 L-21,144 L-19,144 L-19,145 L-17,145 L-17,146 L-15,146 L-15,147 L-13,147 L-13,148 L-11,148 L-11,149 L-9,149 L-9,150 L-7,150 L-7,151 L-5,151 L-5,152 L-3,152 L-3,153 L0,153 L0,154 L2,154 L2,155 L4,155 L4,156 L6,156 L6,157 L9,157 L9,158 L11,158 L11,159 L13,159 L13,160 L16,160 L16,161 L18,161 L18,162 L21,162 L21,163 L23,163 L23,164 L26,164 L26,165 L28,165 L28,166 L31,166 L31,167 L34,167 L34,168 L37,168 L37,169 L40,169 L40,170 L44,170 L44,171 L47,171 L47,172 L51,172 L51,173 L55,173 L55,174 L63,174 L63,175 L72,175 L72,174 L75,174 L75,173 L77,173 L77,171 L78,171 L78,167 L77,167 L77,164 L76,164 L76,162 L72,162 L72,161 L65,161 L65,160 L60,160 L60,159 L56,159 L56,158 L53,158 L53,157 L49,157 L49,156 L46,156 L46,155 L43,155 L43,154 L40,154 L40,153 L37,153 L37,152 L35,152 L35,151 L32,151 L32,150 L29,150 L29,149 L27,149 L27,148 L24,148 L24,147 L22,147 L22,146 L20,146 L20,145 L17,145 L17,144 L15,144 L15,143 L13,143 L13,142 L10,142 L10,141 L8,141 L8,140 L6,140 L6,139 L4,139 L4,138 L2,138 L2,137 L0,137 L0,136 L-2,136 L-2,135 L-4,135 L-4,134 L-6,134 L-6,137 L-7,137 L-7,139 L-8,139 L-8,140 L-9,140 L-9,141 L-14,141 L-14,140 L-15,140 L-15,139 L-16,139 L-16,138 L-17,138 L-17,136 L-18,136 L-18,133 L-19,133 L-19,130 L-20,130 L-20,127 L-21,127 L-21,126 L-22,126 L-22,125 L-24,125 L-24,124 L-26,124 L-26,123 L-27,123 L-27,122 L-29,122 L-29,121 L-31,121 L-31,120 L-33,120 L-33,119 L-34,119 L-34,118 L-36,118 L-36,117 L-38,117 L-38,116 L-39,116 L-39,115 L-41,115 L-41,114 L-43,114 L-43,113 L-45,113 L-45,112 L-46,112 L-46,111 L-48,111 L-48,110 L-49,110 L-49,109 L-51,109 L-51,108 L-53,108 L-53,107 L-54,107 L-54,106 L-56,106 L-56,105 L-57,105 L-57,104 L-59,104 L-59,103 L-65,103 L-65,102 L-66,102 L-66,101 L-68,101 L-68,99 L-69,99 L-69,98 L-70,98 L-70,96 L-71,96 L-71,95 L-72,95 L-72,94 L-73,94 L-73,93 L-75,93 L-75,92 L-76,92 L-76,91 L-77,91 L-77,90 L-75,90 L-75,91 L-74,91 L-74,92 L-72,92 L-72,88 L-71,88 L-71,86 L-70,86 L-70,84 L-69,84 L-69,83 L-68,83 L-68,81 L-67,81 L-67,79 L-66,79 L-66,78 L-67,78 L-67,77 L-68,77 L-68,76 L-70,76 L-70,75 L-71,75 L-71,74 L-72,74 L-72,73 L-74,73 L-74,72 L-75,72 L-75,71 L-76,71 L-76,70 L-77,70 L-77,69 L-79,69 L-79,68 L-80,68 L-80,67 L-81,67 L-81,66 L-82,66 L-82,65 L-83,65 L-83,64 L-85,64 L-85,63 L-89,63 L-89,62 L-93,62 L-93,61 L-97,61 L-97,60 L-102,60 L-102,59 L-109,59 L-109,61 L-108,61 L-108,62 L-107,62 L-107,63 L-106,63 L-106,64 L-105,64 L-105,65 L-104,65 L-104,66 L-103,66 L-103,67 L-102,67 L-102,69 L-103,69 L-103,68 L-104,68 L-104,67 L-105,67 L-105,66 L-106,66 L-106,65 L-107,65 L-107,64 L-108,64 L-108,63 L-109,63 L-109,62 L-110,62 L-110,60 L-111,60 L-111,59 Z M-80,65 L-80,66 L-79,66 L-79,65 Z M-79,66 L-79,67 L-78,67 L-78,68 L-77,68 L-77,69 L-75,69 L-75,70 L-74,70 L-74,71 L-73,71 L-73,72 L-71,72 L-71,73 L-70,73 L-70,74 L-69,74 L-69,75 L-67,75 L-67,76 L-66,76 L-66,77 L-64,77 L-64,76 L-63,76 L-63,75 L-62,75 L-62,74 L-61,74 L-61,72 L-63,72 L-63,71 L-66,71 L-66,70 L-68,70 L-68,69 L-71,69 L-71,68 L-73,68 L-73,67 L-77,67 L-77,66 Z M-69,86 L-69,88 L-70,88 L-70,94 L-69,94 L-69,96 L-68,96 L-68,98 L-67,98 L-67,99 L-66,99 L-66,100 L-65,100 L-65,101 L-60,101 L-60,100 L-61,100 L-61,99 L-62,99 L-62,98 L-63,98 L-63,96 L-64,96 L-64,95 L-65,95 L-65,93 L-66,93 L-66,90 L-67,90 L-67,87 L-68,87 L-68,86 Z M-6,89 L-6,90 L-9,90 L-9,91 L-12,91 L-12,92 L-15,92 L-15,93 L-13,93 L-13,94 L-11,94 L-11,95 L-10,95 L-10,96 L-8,96 L-8,97 L-6,97 L-6,98 L-4,98 L-4,99 L-2,99 L-2,100 L-1,100 L-1,101 L1,101 L1,102 L3,102 L3,103 L4,103 L4,104 L6,104 L6,105 L8,105 L8,106 L9,106 L9,107 L11,107 L11,108 L13,108 L13,109 L14,109 L14,110 L16,110 L16,111 L18,111 L18,112 L19,112 L19,113 L21,113 L21,114 L22,114 L22,115 L24,115 L24,116 L25,116 L25,117 L27,117 L27,118 L28,118 L28,119 L30,119 L30,120 L31,120 L31,121 L33,121 L33,122 L34,122 L34,123 L35,123 L35,124 L37,124 L37,125 L38,125 L38,126 L40,126 L40,127 L41,127 L41,128 L42,128 L42,129 L44,129 L44,130 L45,130 L45,131 L46,131 L46,132 L48,132 L48,133 L49,133 L49,134 L50,134 L50,135 L51,135 L51,136 L53,136 L53,137 L54,137 L54,138 L55,138 L55,139 L56,139 L56,140 L59,140 L59,141 L62,141 L62,142 L66,142 L66,143 L70,143 L70,144 L76,144 L76,145 L82,145 L82,144 L81,144 L81,143 L80,143 L80,141 L79,141 L79,140 L78,140 L78,139 L77,139 L77,138 L76,138 L76,137 L75,137 L75,136 L74,136 L74,135 L73,135 L73,134 L72,134 L72,133 L71,133 L71,132 L70,132 L70,131 L69,131 L69,130 L68,130 L68,129 L67,129 L67,128 L66,128 L66,127 L64,127 L64,126 L63,126 L63,125 L62,125 L62,124 L61,124 L61,123 L60,123 L60,122 L58,122 L58,121 L57,121 L57,120 L56,120 L56,119 L55,119 L55,118 L53,118 L53,117 L52,117 L52,116 L51,116 L51,115 L49,115 L49,114 L48,114 L48,113 L46,113 L46,112 L45,112 L45,111 L44,111 L44,110 L42,110 L42,109 L41,109 L41,108 L40,108 L40,107 L42,107 L42,108 L43,108 L43,109 L45,109 L45,110 L46,110 L46,111 L48,111 L48,112 L49,112 L49,113 L50,113 L50,114 L52,114 L52,115 L53,115 L53,116 L54,116 L54,117 L56,117 L56,118 L57,118 L57,119 L58,119 L58,120 L59,120 L59,121 L61,121 L61,122 L62,122 L62,123 L63,123 L63,124 L64,124 L64,125 L65,125 L65,126 L67,126 L67,127 L68,127 L68,128 L69,128 L69,129 L70,129 L70,130 L71,130 L71,131 L72,131 L72,132 L73,132 L73,133 L74,133 L74,134 L75,134 L75,135 L76,135 L76,136 L77,136 L77,137 L78,137 L78,138 L79,138 L79,139 L80,139 L80,140 L81,140 L81,142 L82,142 L82,143 L83,143 L83,144 L84,144 L84,145 L90,145 L90,144 L92,144 L92,143 L93,143 L93,142 L94,142 L94,136 L93,136 L93,134 L92,134 L92,132 L91,132 L91,130 L90,130 L90,129 L89,129 L89,128 L88,128 L88,126 L87,126 L87,125 L86,125 L86,124 L85,124 L85,123 L84,123 L84,122 L83,122 L83,121 L82,121 L82,120 L81,120 L81,119 L80,119 L80,118 L79,118 L79,117 L78,117 L78,116 L77,116 L77,115 L76,115 L76,114 L75,114 L75,113 L74,113 L74,112 L72,112 L72,111 L71,111 L71,110 L70,110 L70,109 L69,109 L69,108 L68,108 L68,107 L66,107 L66,106 L65,106 L65,105 L64,105 L64,104 L63,104 L63,103 L61,103 L61,102 L60,102 L60,101 L58,101 L58,100 L57,100 L57,99 L56,99 L56,98 L54,98 L54,97 L53,97 L53,96 L52,96 L52,95 L50,95 L50,94 L48,94 L48,95 L47,95 L47,96 L36,96 L36,95 L31,95 L31,94 L24,94 L24,93 L20,93 L20,94 L22,94 L22,95 L24,95 L24,96 L25,96 L25,97 L27,97 L27,98 L29,98 L29,99 L30,99 L30,100 L31,100 L31,101 L33,101 L33,102 L35,102 L35,103 L36,103 L36,104 L37,104 L37,105 L35,105 L35,104 L34,104 L34,103 L32,103 L32,102 L30,102 L30,101 L29,101 L29,100 L27,100 L27,99 L26,99 L26,98 L24,98 L24,97 L23,97 L23,96 L21,96 L21,95 L19,95 L19,94 L18,94 L18,93 L16,93 L16,92 L12,92 L12,91 L7,91 L7,90 L1,90 L1,89 Z M30,92 L30,93 L31,93 L31,92 Z M-17,93 L-17,94 L-20,94 L-20,95 L-19,95 L-19,98 L-18,98 L-18,101 L-17,101 L-17,103 L-16,103 L-16,107 L-15,107 L-15,109 L-13,109 L-13,110 L-11,110 L-11,111 L-9,111 L-9,112 L-7,112 L-7,113 L-5,113 L-5,114 L-3,114 L-3,115 L-1,115 L-1,116 L1,116 L1,117 L3,117 L3,118 L5,118 L5,119 L7,119 L7,120 L9,120 L9,121 L11,121 L11,122 L13,122 L13,123 L15,123 L15,124 L17,124 L17,125 L19,125 L19,126 L22,126 L22,127 L24,127 L24,128 L26,128 L26,129 L28,129 L28,130 L31,130 L31,131 L33,131 L33,132 L36,132 L36,133 L38,133 L38,134 L41,134 L41,135 L44,135 L44,136 L47,136 L47,137 L49,137 L49,138 L52,138 L52,137 L50,137 L50,136 L49,136 L49,135 L48,135 L48,134 L47,134 L47,133 L45,133 L45,132 L44,132 L44,131 L43,131 L43,130 L41,130 L41,129 L40,129 L40,128 L39,128 L39,127 L37,127 L37,126 L36,126 L36,125 L34,125 L34,124 L33,124 L33,123 L32,123 L32,122 L30,122 L30,121 L29,121 L29,120 L27,120 L27,119 L26,119 L26,118 L24,118 L24,117 L23,117 L23,116 L21,116 L21,115 L19,115 L19,114 L18,114 L18,113 L16,113 L16,112 L15,112 L15,111 L13,111 L13,110 L12,110 L12,109 L10,109 L10,108 L8,108 L8,107 L7,107 L7,106 L5,106 L5,105 L3,105 L3,104 L2,104 L2,103 L0,103 L0,102 L-2,102 L-2,101 L-4,101 L-4,100 L-5,100 L-5,99 L-7,99 L-7,98 L-9,98 L-9,97 L-11,97 L-11,96 L-13,96 L-13,95 L-14,95 L-14,94 L-16,94 L-16,93 Z M-32,98 L-32,99 L-31,99 L-31,100 L-30,100 L-30,98 Z M-34,99 L-34,100 L-37,100 L-37,101 L-41,101 L-41,102 L-47,102 L-47,103 L-54,103 L-54,104 L-55,104 L-55,105 L-53,105 L-53,106 L-52,106 L-52,107 L-50,107 L-50,108 L-48,108 L-48,109 L-47,109 L-47,110 L-45,110 L-45,111 L-43,111 L-43,112 L-42,112 L-42,113 L-40,113 L-40,114 L-38,114 L-38,115 L-37,115 L-37,116 L-35,116 L-35,117 L-33,117 L-33,118 L-31,118 L-31,119 L-30,119 L-30,120 L-28,120 L-28,121 L-26,121 L-26,122 L-24,122 L-24,123 L-22,123 L-22,121 L-23,121 L-23,119 L-24,119 L-24,115 L-25,115 L-25,113 L-26,113 L-26,109 L-27,109 L-27,107 L-28,107 L-28,104 L-29,104 L-29,102 L-30,102 L-30,101 L-32,101 L-32,100 L-33,100 L-33,99 Z M-14,111 L-14,112 L-13,112 L-13,115 L-12,115 L-12,118 L-11,118 L-11,121 L-10,121 L-10,124 L-9,124 L-9,127 L-8,127 L-8,130 L-7,130 L-7,132 L-5,132 L-5,133 L-3,133 L-3,134 L-1,134 L-1,135 L1,135 L1,136 L3,136 L3,137 L5,137 L5,138 L7,138 L7,139 L10,139 L10,140 L12,140 L12,141 L14,141 L14,142 L16,142 L16,143 L19,143 L19,144 L21,144 L21,145 L23,145 L23,146 L26,146 L26,147 L28,147 L28,148 L31,148 L31,149 L34,149 L34,150 L36,150 L36,151 L39,151 L39,152 L42,152 L42,153 L45,153 L45,154 L48,154 L48,155 L51,155 L51,156 L54,156 L54,157 L59,157 L59,158 L63,158 L63,159 L70,159 L70,160 L74,160 L74,159 L73,159 L73,158 L72,158 L72,156 L71,156 L71,155 L70,155 L70,154 L69,154 L69,153 L68,153 L68,152 L67,152 L67,151 L66,151 L66,150 L65,150 L65,149 L64,149 L64,148 L63,148 L63,147 L62,147 L62,146 L61,146 L61,145 L60,145 L60,144 L59,144 L59,143 L58,143 L58,142 L57,142 L57,141 L53,141 L53,140 L51,140 L51,139 L48,139 L48,138 L45,138 L45,137 L42,137 L42,136 L39,136 L39,135 L37,135 L37,134 L34,134 L34,133 L32,133 L32,132 L29,132 L29,131 L27,131 L27,130 L25,130 L25,129 L23,129 L23,128 L20,128 L20,127 L18,127 L18,126 L16,126 L16,125 L14,125 L14,124 L12,124 L12,123 L10,123 L10,122 L7,122 L7,121 L5,121 L5,120 L3,120 L3,119 L1,119 L1,118 L-1,118 L-1,117 L-3,117 L-3,116 L-4,116 L-4,115 L-7,115 L-7,114 L-8,114 L-8,113 L-10,113 L-10,112 L-12,112 L-12,111 Z M52,138 L52,139 L53,139 L53,138 Z M61,143 L61,144 L62,144 L62,145 L63,145 L63,146 L64,146 L64,147 L65,147 L65,148 L66,148 L66,149 L67,149 L67,150 L68,150 L68,151 L69,151 L69,152 L70,152 L70,153 L71,153 L71,154 L72,154 L72,155 L73,155 L73,157 L74,157 L74,158 L75,158 L75,159 L76,159 L76,160 L81,160 L81,159 L84,159 L84,158 L85,158 L85,157 L86,157 L86,151 L85,151 L85,149 L84,149 L84,147 L78,147 L78,146 L73,146 L73,145 L67,145 L67,144 L64,144 L64,143 Z " fill="#2C2C2A" transform="translate(134,15)"/>
<path d="M0,0 L2,0 L2,2 L1,2 L1,7 L2,7 L2,12 L3,12 L3,16 L4,16 L4,18 L5,18 L5,21 L6,21 L6,22 L8,22 L8,23 L9,23 L9,25 L10,25 L10,27 L11,27 L11,28 L12,28 L12,29 L13,29 L13,33 L14,33 L14,34 L15,34 L15,35 L16,35 L16,36 L18,36 L18,37 L19,37 L19,38 L21,38 L21,40 L18,40 L18,41 L15,41 L15,42 L12,42 L12,43 L9,43 L9,44 L7,44 L7,45 L4,45 L4,46 L1,46 L1,47 L-1,47 L-1,48 L-4,48 L-4,49 L-7,49 L-7,50 L-10,50 L-10,51 L-13,51 L-13,50 L-15,50 L-15,49 L-16,49 L-16,48 L-17,48 L-17,47 L-18,47 L-18,46 L-19,46 L-19,45 L-20,45 L-20,44 L-21,44 L-21,42 L-22,42 L-22,41 L-23,41 L-23,39 L-24,39 L-24,37 L-25,37 L-25,35 L-26,35 L-26,33 L-27,33 L-27,29 L-28,29 L-28,21 L-27,21 L-27,20 L-26,20 L-26,19 L-25,19 L-25,18 L-23,18 L-23,17 L-22,17 L-22,18 L-20,18 L-20,17 L-19,17 L-19,14 L-18,14 L-18,13 L-16,13 L-16,12 L-15,12 L-15,11 L-14,11 L-14,9 L-13,9 L-13,8 L-11,8 L-11,7 L-10,7 L-10,6 L-9,6 L-9,5 L-5,5 L-5,4 L-4,4 L-4,3 L-2,3 L-2,2 L-1,2 L-1,1 L0,1 Z " fill="#B6F867" transform="translate(106,64)"/>
<path d="M0,0 L2,0 L2,1 L1,1 L1,2 L0,2 L0,3 L-1,3 L-1,11 L0,11 L0,15 L1,15 L1,17 L2,17 L2,19 L3,19 L3,21 L4,21 L4,23 L5,23 L5,24 L6,24 L6,26 L7,26 L7,27 L8,27 L8,28 L9,28 L9,29 L10,29 L10,30 L11,30 L11,31 L12,31 L12,32 L14,32 L14,33 L17,33 L17,32 L20,32 L20,31 L23,31 L23,30 L26,30 L26,29 L28,29 L28,28 L31,28 L31,27 L35,27 L35,28 L36,28 L36,31 L37,31 L37,34 L38,34 L38,36 L39,36 L39,40 L40,40 L40,42 L42,42 L42,43 L43,43 L43,44 L41,44 L41,45 L42,45 L42,48 L43,48 L43,51 L44,51 L44,54 L45,54 L45,57 L46,57 L46,60 L47,60 L47,63 L48,63 L48,65 L50,65 L50,66 L52,66 L52,67 L54,67 L54,68 L56,68 L56,69 L58,69 L58,70 L60,70 L60,71 L62,71 L62,72 L65,72 L65,73 L67,73 L67,74 L69,74 L69,75 L71,75 L71,76 L74,76 L74,77 L70,77 L70,76 L68,76 L68,75 L65,75 L65,74 L63,74 L63,73 L61,73 L61,72 L59,72 L59,71 L57,71 L57,70 L55,70 L55,69 L53,69 L53,68 L51,68 L51,67 L49,67 L49,70 L48,70 L48,72 L47,72 L47,73 L46,73 L46,74 L41,74 L41,73 L40,73 L40,72 L39,72 L39,71 L38,71 L38,69 L37,69 L37,66 L36,66 L36,63 L35,63 L35,60 L34,60 L34,59 L33,59 L33,58 L31,58 L31,57 L29,57 L29,56 L28,56 L28,55 L26,55 L26,54 L24,54 L24,53 L22,53 L22,52 L21,52 L21,51 L19,51 L19,50 L17,50 L17,49 L16,49 L16,48 L14,48 L14,47 L12,47 L12,46 L10,46 L10,45 L9,45 L9,44 L7,44 L7,43 L6,43 L6,42 L4,42 L4,41 L2,41 L2,40 L1,40 L1,39 L-1,39 L-1,38 L-2,38 L-2,37 L-4,37 L-4,36 L-10,36 L-10,35 L-11,35 L-11,34 L-13,34 L-13,32 L-14,32 L-14,31 L-15,31 L-15,29 L-16,29 L-16,28 L-17,28 L-17,27 L-18,27 L-18,26 L-20,26 L-20,25 L-21,25 L-21,24 L-22,24 L-22,23 L-20,23 L-20,24 L-19,24 L-19,25 L-17,25 L-17,21 L-16,21 L-16,19 L-15,19 L-15,17 L-14,17 L-14,16 L-13,16 L-13,14 L-12,14 L-12,12 L-11,12 L-11,11 L-12,11 L-12,10 L-13,10 L-13,9 L-15,9 L-15,8 L-16,8 L-16,7 L-17,7 L-17,6 L-19,6 L-19,5 L-20,5 L-20,4 L-21,4 L-21,3 L-22,3 L-22,2 L-20,2 L-20,3 L-19,3 L-19,4 L-18,4 L-18,5 L-16,5 L-16,6 L-15,6 L-15,7 L-14,7 L-14,8 L-12,8 L-12,9 L-11,9 L-11,10 L-9,10 L-9,9 L-8,9 L-8,8 L-7,8 L-7,7 L-6,7 L-6,5 L-7,5 L-7,4 L-3,4 L-3,3 L-2,3 L-2,2 L-1,2 L-1,1 L0,1 Z M-14,19 L-14,21 L-15,21 L-15,27 L-14,27 L-14,29 L-13,29 L-13,31 L-12,31 L-12,32 L-11,32 L-11,33 L-10,33 L-10,34 L-5,34 L-5,33 L-6,33 L-6,32 L-7,32 L-7,31 L-8,31 L-8,29 L-9,29 L-9,28 L-10,28 L-10,26 L-11,26 L-11,23 L-12,23 L-12,20 L-13,20 L-13,19 Z M23,31 L23,32 L24,32 L24,33 L25,33 L25,31 Z M21,32 L21,33 L18,33 L18,34 L14,34 L14,35 L8,35 L8,36 L1,36 L1,37 L0,37 L0,38 L2,38 L2,39 L3,39 L3,40 L5,40 L5,41 L7,41 L7,42 L8,42 L8,43 L10,43 L10,44 L12,44 L12,45 L13,45 L13,46 L15,46 L15,47 L17,47 L17,48 L18,48 L18,49 L20,49 L20,50 L22,50 L22,51 L24,51 L24,52 L25,52 L25,53 L27,53 L27,54 L29,54 L29,55 L31,55 L31,56 L33,56 L33,54 L32,54 L32,52 L31,52 L31,48 L30,48 L30,46 L29,46 L29,42 L28,42 L28,40 L27,40 L27,37 L26,37 L26,35 L25,35 L25,34 L23,34 L23,33 L22,33 L22,32 Z " fill="#070806" transform="translate(79,82)"/>
<path d="M0,0 L8,0 L8,1 L11,1 L11,2 L13,2 L13,3 L14,3 L14,4 L15,4 L15,5 L16,5 L16,6 L17,6 L17,7 L18,7 L18,9 L19,9 L19,11 L20,11 L20,21 L19,21 L19,24 L18,24 L18,25 L17,25 L17,27 L16,27 L16,28 L15,28 L15,29 L13,29 L13,30 L12,30 L12,31 L9,31 L9,32 L-1,32 L-1,31 L-4,31 L-4,30 L-5,30 L-5,29 L-6,29 L-6,28 L-7,28 L-7,30 L-6,30 L-6,31 L-5,31 L-5,32 L-4,32 L-4,33 L-3,33 L-3,34 L-2,34 L-2,35 L0,35 L0,36 L1,36 L1,37 L2,37 L2,38 L3,38 L3,39 L4,39 L4,40 L5,40 L5,41 L6,41 L6,42 L7,42 L7,43 L8,43 L8,44 L9,44 L9,45 L10,45 L10,46 L11,46 L11,47 L12,47 L12,48 L13,48 L13,49 L11,49 L11,48 L10,48 L10,47 L9,47 L9,46 L8,46 L8,45 L7,45 L7,44 L6,44 L6,43 L5,43 L5,42 L4,42 L4,41 L3,41 L3,40 L2,40 L2,39 L1,39 L1,38 L0,38 L0,37 L-1,37 L-1,36 L-3,36 L-3,35 L-4,35 L-4,34 L-5,34 L-5,33 L-6,33 L-6,32 L-7,32 L-7,31 L-9,31 L-9,30 L-10,30 L-10,29 L-11,29 L-11,28 L-12,28 L-12,27 L-10,27 L-10,28 L-8,28 L-8,26 L-9,26 L-9,25 L-10,25 L-10,23 L-11,23 L-11,21 L-12,21 L-12,11 L-11,11 L-11,9 L-10,9 L-10,7 L-9,7 L-9,6 L-8,6 L-8,5 L-7,5 L-7,4 L-6,4 L-6,3 L-5,3 L-5,2 L-3,2 L-3,1 L0,1 Z " fill="#3C5325" transform="translate(209,91)"/>
<path d="M0,0 L7,0 L7,1 L9,1 L9,2 L11,2 L11,3 L13,3 L13,4 L15,4 L15,5 L16,5 L16,6 L17,6 L17,7 L18,7 L18,8 L19,8 L19,9 L21,9 L21,11 L19,11 L19,10 L18,10 L18,9 L17,9 L17,8 L16,8 L16,7 L14,7 L14,6 L13,6 L13,5 L11,5 L11,4 L9,4 L9,3 L7,3 L7,2 L-1,2 L-1,3 L-2,3 L-2,4 L-3,4 L-3,5 L-4,5 L-4,7 L-5,7 L-5,10 L-6,10 L-6,25 L-5,25 L-5,29 L-4,29 L-4,33 L-3,33 L-3,36 L-2,36 L-2,37 L-1,37 L-1,36 L3,36 L3,35 L6,35 L6,34 L9,34 L9,33 L11,33 L11,34 L13,34 L13,35 L14,35 L14,36 L15,36 L15,37 L16,37 L16,38 L17,38 L17,39 L18,39 L18,41 L19,41 L19,42 L20,42 L20,44 L21,44 L21,48 L22,48 L22,55 L21,55 L21,56 L20,56 L20,57 L19,57 L19,58 L18,58 L18,59 L17,59 L17,60 L15,60 L15,61 L14,61 L14,62 L13,62 L13,63 L12,63 L12,65 L13,65 L13,66 L14,66 L14,67 L15,67 L15,68 L16,68 L16,70 L17,70 L17,71 L18,71 L18,72 L19,72 L19,73 L20,73 L20,74 L21,74 L21,75 L22,75 L22,76 L24,76 L24,77 L25,77 L25,78 L26,78 L26,79 L28,79 L28,80 L30,80 L30,81 L32,81 L32,82 L41,82 L41,81 L42,81 L42,80 L43,80 L43,79 L44,79 L44,77 L45,77 L45,73 L46,73 L46,62 L45,62 L45,56 L44,56 L44,53 L43,53 L43,49 L42,49 L42,46 L41,46 L41,44 L40,44 L40,41 L39,41 L39,39 L38,39 L38,37 L37,37 L37,35 L36,35 L36,33 L35,33 L35,31 L34,31 L34,29 L33,29 L33,28 L32,28 L32,26 L31,26 L31,24 L30,24 L30,23 L29,23 L29,21 L28,21 L28,19 L29,19 L29,20 L30,20 L30,21 L31,21 L31,23 L32,23 L32,24 L33,24 L33,26 L34,26 L34,28 L35,28 L35,29 L36,29 L36,31 L37,31 L37,33 L38,33 L38,35 L39,35 L39,37 L40,37 L40,39 L41,39 L41,41 L42,41 L42,44 L43,44 L43,47 L44,47 L44,49 L45,49 L45,53 L46,53 L46,57 L47,57 L47,65 L48,65 L48,72 L47,72 L47,77 L46,77 L46,79 L45,79 L45,80 L44,80 L44,82 L42,82 L42,83 L41,83 L41,84 L32,84 L32,83 L30,83 L30,82 L28,82 L28,81 L26,81 L26,80 L25,80 L25,79 L23,79 L23,78 L22,78 L22,77 L21,77 L21,76 L20,76 L20,75 L19,75 L19,74 L18,74 L18,73 L17,73 L17,72 L16,72 L16,71 L15,71 L15,70 L14,70 L14,69 L13,69 L13,67 L12,67 L12,66 L11,66 L11,65 L10,65 L10,63 L9,63 L9,62 L8,62 L8,61 L7,61 L7,59 L6,59 L6,57 L5,57 L5,56 L4,56 L4,54 L3,54 L3,52 L2,52 L2,50 L1,50 L1,48 L0,48 L0,46 L-1,46 L-1,44 L-2,44 L-2,41 L-3,41 L-3,39 L-4,39 L-4,35 L-5,35 L-5,33 L-6,33 L-6,28 L-7,28 L-7,23 L-8,23 L-8,10 L-7,10 L-7,7 L-6,7 L-6,5 L-5,5 L-5,4 L-4,4 L-4,3 L-3,3 L-3,2 L-2,2 L-2,1 L0,1 Z " fill="#384823" transform="translate(137,21)"/>
<path d="M0,0 L10,0 L10,1 L12,1 L12,2 L14,2 L14,3 L15,3 L15,4 L16,4 L16,5 L17,5 L17,7 L18,7 L18,9 L19,9 L19,12 L20,12 L20,16 L19,16 L19,19 L18,19 L18,21 L17,21 L17,23 L16,23 L16,24 L15,24 L15,25 L14,25 L14,26 L12,26 L12,27 L11,27 L11,28 L7,28 L7,29 L3,29 L3,28 L-1,28 L-1,27 L-3,27 L-3,26 L-4,26 L-4,25 L-5,25 L-5,24 L-6,24 L-6,23 L-7,23 L-7,22 L-8,22 L-8,20 L-9,20 L-9,17 L-10,17 L-10,12 L-9,12 L-9,9 L-8,9 L-8,7 L-7,7 L-7,5 L-6,5 L-6,4 L-5,4 L-5,3 L-4,3 L-4,2 L-2,2 L-2,1 L0,1 Z " fill="#ACE467" transform="translate(219,10)"/>
<path d="M0,0 L10,0 L10,1 L13,1 L13,2 L14,2 L14,3 L16,3 L16,4 L17,4 L17,5 L18,5 L18,7 L19,7 L19,9 L20,9 L20,12 L21,12 L21,18 L20,18 L20,21 L19,21 L19,23 L18,23 L18,24 L17,24 L17,25 L16,25 L16,26 L15,26 L15,27 L14,27 L14,28 L12,28 L12,29 L10,29 L10,30 L1,30 L1,29 L-1,29 L-1,28 L-3,28 L-3,27 L-4,27 L-4,26 L-5,26 L-5,25 L-6,25 L-6,24 L-7,24 L-7,23 L-8,23 L-8,21 L-9,21 L-9,18 L-10,18 L-10,12 L-9,12 L-9,9 L-8,9 L-8,7 L-7,7 L-7,6 L-6,6 L-6,4 L-5,4 L-5,3 L-3,3 L-3,2 L-2,2 L-2,1 L0,1 Z M1,10 L1,11 L0,11 L0,12 L-1,12 L-1,14 L-2,14 L-2,15 L-1,15 L-1,18 L0,18 L0,19 L2,19 L2,20 L3,20 L3,21 L4,21 L4,22 L6,22 L6,23 L7,23 L7,22 L8,22 L8,21 L9,21 L9,20 L10,20 L10,18 L11,18 L11,17 L12,17 L12,15 L13,15 L13,13 L12,13 L12,11 L11,11 L11,10 L7,10 L7,11 L6,11 L6,12 L5,12 L5,11 L3,11 L3,10 Z " fill="#010101" transform="translate(180,5)"/>
<path d="M0,0 L2,0 L2,2 L3,2 L3,4 L4,4 L4,6 L5,6 L5,8 L6,8 L6,10 L7,10 L7,11 L8,11 L8,13 L10,13 L10,14 L12,14 L12,15 L14,15 L14,16 L16,16 L16,17 L17,17 L17,18 L19,18 L19,19 L20,19 L20,20 L19,20 L19,21 L17,21 L17,22 L16,22 L16,23 L14,23 L14,24 L12,24 L12,25 L10,25 L10,26 L8,26 L8,28 L7,28 L7,29 L6,29 L6,31 L5,31 L5,33 L4,33 L4,35 L3,35 L3,37 L2,37 L2,38 L1,38 L1,39 L0,39 L0,37 L-1,37 L-1,36 L-2,36 L-2,34 L-3,34 L-3,32 L-4,32 L-4,30 L-5,30 L-5,28 L-6,28 L-6,27 L-7,27 L-7,26 L-9,26 L-9,25 L-10,25 L-10,24 L-12,24 L-12,23 L-14,23 L-14,22 L-16,22 L-16,21 L-18,21 L-18,20 L-19,20 L-19,19 L-18,19 L-18,18 L-16,18 L-16,17 L-14,17 L-14,16 L-12,16 L-12,15 L-11,15 L-11,14 L-9,14 L-9,13 L-7,13 L-7,12 L-6,12 L-6,11 L-5,11 L-5,9 L-4,9 L-4,7 L-3,7 L-3,5 L-2,5 L-2,3 L-1,3 L-1,1 L0,1 Z " fill="#000000" transform="translate(43,127)"/>
<path d="M0,0 L4,0 L4,1 L8,1 L8,2 L9,2 L9,3 L11,3 L11,4 L12,4 L12,5 L13,5 L13,6 L14,6 L14,8 L15,8 L15,10 L16,10 L16,18 L15,18 L15,21 L14,21 L14,23 L13,23 L13,24 L12,24 L12,25 L11,25 L11,26 L9,26 L9,27 L7,27 L7,28 L5,28 L5,29 L-1,29 L-1,28 L-4,28 L-4,27 L-6,27 L-6,26 L-7,26 L-7,25 L-8,25 L-8,24 L-9,24 L-9,23 L-10,23 L-10,21 L-11,21 L-11,19 L-12,19 L-12,10 L-11,10 L-11,8 L-10,8 L-10,6 L-9,6 L-9,5 L-8,5 L-8,4 L-7,4 L-7,3 L-5,3 L-5,2 L-3,2 L-3,1 L0,1 Z M-3,10 L-3,13 L-2,13 L-2,18 L-1,18 L-1,21 L0,21 L0,20 L2,20 L2,19 L3,19 L3,18 L4,18 L4,17 L5,17 L5,16 L7,16 L7,15 L8,15 L8,14 L9,14 L9,13 L7,13 L7,12 L3,12 L3,11 L0,11 L0,10 Z " fill="#010101" transform="translate(218,51)"/>
<path d="M0,0 L7,0 L7,1 L10,1 L10,2 L12,2 L12,3 L14,3 L14,4 L16,4 L16,5 L17,5 L17,6 L18,6 L18,7 L20,7 L20,8 L21,8 L21,9 L22,9 L22,10 L23,10 L23,11 L24,11 L24,12 L25,12 L25,13 L26,13 L26,14 L27,14 L27,15 L28,15 L28,16 L29,16 L29,17 L30,17 L30,19 L31,19 L31,20 L32,20 L32,21 L33,21 L33,22 L34,22 L34,24 L35,24 L35,25 L36,25 L36,27 L37,27 L37,28 L38,28 L38,30 L39,30 L39,32 L40,32 L40,33 L41,33 L41,35 L42,35 L42,37 L43,37 L43,39 L44,39 L44,41 L45,41 L45,43 L46,43 L46,45 L47,45 L47,47 L48,47 L48,50 L49,50 L49,52 L50,52 L50,56 L51,56 L51,58 L52,58 L52,63 L53,63 L53,67 L54,67 L54,87 L53,87 L53,89 L52,89 L52,91 L51,91 L51,92 L50,92 L50,93 L49,93 L49,91 L50,91 L50,89 L51,89 L51,87 L52,87 L52,81 L53,81 L53,74 L52,74 L52,66 L51,66 L51,62 L50,62 L50,58 L49,58 L49,55 L48,55 L48,52 L47,52 L47,50 L46,50 L46,47 L45,47 L45,45 L44,45 L44,43 L43,43 L43,41 L42,41 L42,39 L41,39 L41,37 L40,37 L40,35 L39,35 L39,33 L38,33 L38,32 L37,32 L37,30 L36,30 L36,29 L35,29 L35,27 L34,27 L34,25 L33,25 L33,24 L32,24 L32,23 L31,23 L31,21 L30,21 L30,20 L29,20 L29,19 L28,19 L28,18 L27,18 L27,16 L26,16 L26,15 L25,15 L25,14 L24,14 L24,13 L23,13 L23,12 L22,12 L22,11 L21,11 L21,10 L19,10 L19,9 L18,9 L18,8 L17,8 L17,7 L16,7 L16,6 L14,6 L14,5 L12,5 L12,4 L10,4 L10,3 L7,3 L7,2 L0,2 L0,3 L-2,3 L-2,4 L-3,4 L-3,5 L-4,5 L-4,7 L-5,7 L-5,9 L-6,9 L-6,12 L-7,12 L-7,26 L-6,26 L-6,31 L-5,31 L-5,36 L-4,36 L-4,39 L-3,39 L-3,42 L-2,42 L-2,45 L-1,45 L-1,47 L0,47 L0,50 L1,50 L1,52 L2,52 L2,54 L3,54 L3,56 L4,56 L4,58 L5,58 L5,60 L6,60 L6,62 L7,62 L7,63 L8,63 L8,65 L9,65 L9,67 L10,67 L10,68 L11,68 L11,70 L12,70 L12,71 L13,71 L13,72 L10,72 L10,70 L9,70 L9,69 L8,69 L8,67 L7,67 L7,65 L6,65 L6,64 L5,64 L5,62 L4,62 L4,60 L3,60 L3,58 L2,58 L2,56 L1,56 L1,54 L0,54 L0,52 L-1,52 L-1,50 L-2,50 L-2,47 L-3,47 L-3,44 L-4,44 L-4,42 L-5,42 L-5,38 L-6,38 L-6,35 L-7,35 L-7,30 L-8,30 L-8,25 L-9,25 L-9,17 L-10,17 L-10,19 L-11,19 L-11,21 L-12,21 L-12,23 L-13,23 L-13,25 L-14,25 L-14,27 L-15,27 L-15,29 L-16,29 L-16,32 L-17,32 L-17,34 L-18,34 L-18,36 L-19,36 L-19,38 L-20,38 L-20,40 L-21,40 L-21,42 L-22,42 L-22,44 L-23,44 L-23,46 L-24,46 L-24,49 L-25,49 L-25,59 L-24,59 L-24,64 L-23,64 L-23,66 L-22,66 L-22,69 L-21,69 L-21,71 L-22,71 L-22,70 L-23,70 L-23,67 L-24,67 L-24,65 L-25,65 L-25,61 L-26,61 L-26,56 L-27,56 L-27,51 L-26,51 L-26,49 L-28,49 L-28,50 L-29,50 L-29,51 L-30,51 L-30,52 L-32,52 L-32,53 L-33,53 L-33,54 L-35,54 L-35,53 L-34,53 L-34,52 L-33,52 L-33,51 L-31,51 L-31,50 L-30,50 L-30,49 L-31,49 L-31,48 L-33,48 L-33,47 L-35,47 L-35,46 L-38,46 L-38,45 L-40,45 L-40,44 L-43,44 L-43,43 L-45,43 L-45,42 L-48,42 L-48,41 L-50,41 L-50,40 L-53,40 L-53,39 L-55,39 L-55,38 L-58,38 L-58,37 L-61,37 L-61,36 L-64,36 L-64,35 L-67,35 L-67,34 L-71,34 L-71,33 L-74,33 L-74,32 L-76,32 L-76,31 L-72,31 L-72,32 L-69,32 L-69,33 L-65,33 L-65,34 L-62,34 L-62,35 L-59,35 L-59,36 L-57,36 L-57,37 L-54,37 L-54,38 L-51,38 L-51,39 L-49,39 L-49,40 L-46,40 L-46,41 L-44,41 L-44,42 L-41,42 L-41,43 L-39,43 L-39,44 L-36,44 L-36,45 L-34,45 L-34,46 L-32,46 L-32,47 L-30,47 L-30,48 L-27,48 L-27,47 L-26,47 L-26,46 L-25,46 L-25,44 L-24,44 L-24,42 L-23,42 L-23,40 L-22,40 L-22,38 L-21,38 L-21,36 L-20,36 L-20,34 L-19,34 L-19,32 L-18,32 L-18,30 L-17,30 L-17,28 L-16,28 L-16,25 L-15,25 L-15,23 L-14,23 L-14,21 L-13,21 L-13,19 L-12,19 L-12,17 L-11,17 L-11,15 L-10,15 L-10,13 L-9,13 L-9,11 L-8,11 L-8,9 L-7,9 L-7,7 L-6,7 L-6,5 L-5,5 L-5,4 L-4,4 L-4,3 L-3,3 L-3,2 L-2,2 L-2,1 L0,1 Z " fill="#0F110A" transform="translate(134,15)"/>
<path d="M0,0 L5,0 L5,1 L9,1 L9,2 L11,2 L11,3 L12,3 L12,4 L13,4 L13,5 L14,5 L14,6 L15,6 L15,7 L16,7 L16,9 L17,9 L17,11 L18,11 L18,19 L17,19 L17,22 L16,22 L16,24 L15,24 L15,25 L14,25 L14,26 L13,26 L13,27 L11,27 L11,28 L10,28 L10,29 L7,29 L7,30 L-1,30 L-1,29 L-4,29 L-4,28 L-5,28 L-5,27 L-6,27 L-6,26 L-5,26 L-5,25 L-7,25 L-7,24 L-8,24 L-8,21 L-6,21 L-6,23 L-5,23 L-5,21 L-3,21 L-3,23 L-2,23 L-2,24 L0,24 L0,25 L1,25 L1,27 L2,27 L2,28 L3,28 L3,27 L4,27 L4,25 L5,25 L5,23 L6,23 L6,22 L7,22 L7,20 L8,20 L8,19 L9,19 L9,17 L10,17 L10,14 L11,14 L11,10 L10,10 L10,8 L9,8 L9,7 L8,7 L8,6 L7,6 L7,5 L-1,5 L-1,6 L-2,6 L-2,7 L-3,7 L-3,8 L-4,8 L-4,10 L-5,10 L-5,18 L-6,18 L-6,20 L-11,20 L-11,18 L-12,18 L-12,12 L-11,12 L-11,9 L-10,9 L-10,7 L-9,7 L-9,6 L-8,6 L-8,5 L-7,5 L-7,4 L-6,4 L-6,3 L-5,3 L-5,2 L-3,2 L-3,1 L0,1 Z " fill="#B8F56D" transform="translate(210,92)"/>
<path d="M0,0 L3,0 L3,1 L5,1 L5,2 L6,2 L6,3 L7,3 L7,4 L8,4 L8,11 L6,11 L6,13 L4,13 L4,14 L-2,14 L-2,13 L-3,13 L-3,12 L-4,12 L-4,11 L-5,11 L-5,10 L-6,10 L-6,9 L-19,9 L-19,10 L-21,10 L-21,11 L-22,11 L-22,12 L-23,12 L-23,14 L-24,14 L-24,15 L-23,15 L-23,19 L-22,19 L-22,21 L-21,21 L-21,22 L-16,22 L-16,23 L-10,23 L-10,24 L-5,24 L-5,25 L-1,25 L-1,26 L3,26 L3,27 L5,27 L5,28 L9,28 L9,29 L12,29 L12,30 L15,30 L15,31 L18,31 L18,32 L21,32 L21,33 L23,33 L23,34 L26,34 L26,35 L28,35 L28,36 L31,36 L31,37 L33,37 L33,38 L35,38 L35,39 L40,39 L40,40 L39,40 L39,41 L38,41 L38,42 L36,42 L36,43 L35,43 L35,46 L34,46 L34,47 L32,47 L32,46 L31,46 L31,47 L29,47 L29,46 L30,46 L30,45 L31,45 L31,44 L33,44 L33,43 L34,43 L34,42 L35,42 L35,41 L37,41 L37,40 L34,40 L34,39 L32,39 L32,38 L29,38 L29,37 L27,37 L27,36 L24,36 L24,35 L22,35 L22,34 L19,34 L19,33 L16,33 L16,32 L13,32 L13,31 L10,31 L10,30 L7,30 L7,29 L4,29 L4,28 L0,28 L0,27 L-3,27 L-3,26 L-8,26 L-8,25 L-13,25 L-13,24 L-19,24 L-19,26 L-18,26 L-18,27 L-17,27 L-17,28 L-16,28 L-16,29 L-15,29 L-15,30 L-14,30 L-14,31 L-13,31 L-13,32 L-12,32 L-12,34 L-13,34 L-13,33 L-14,33 L-14,32 L-15,32 L-15,31 L-16,31 L-16,30 L-17,30 L-17,29 L-18,29 L-18,28 L-19,28 L-19,27 L-20,27 L-20,25 L-21,25 L-21,24 L-28,24 L-28,25 L-30,25 L-30,26 L-31,26 L-31,28 L-32,28 L-32,29 L-33,29 L-33,26 L-32,26 L-32,25 L-31,25 L-31,24 L-29,24 L-29,23 L-25,23 L-25,22 L-23,22 L-23,20 L-24,20 L-24,18 L-25,18 L-25,12 L-24,12 L-24,11 L-23,11 L-23,10 L-22,10 L-22,9 L-20,9 L-20,8 L-16,8 L-16,7 L-10,7 L-10,8 L-5,8 L-5,4 L-4,4 L-4,2 L-2,2 L-2,1 L0,1 Z " fill="#6C8747" transform="translate(52,35)"/>
<path d="M0,0 L5,0 L5,1 L7,1 L7,2 L9,2 L9,3 L10,3 L10,5 L11,5 L11,7 L12,7 L12,13 L11,13 L11,16 L10,16 L10,17 L9,17 L9,18 L7,18 L7,19 L6,19 L6,20 L-1,20 L-1,19 L-3,19 L-3,18 L-4,18 L-4,17 L-5,17 L-5,16 L-6,16 L-6,15 L-7,15 L-7,13 L-8,13 L-8,7 L-7,7 L-7,5 L-6,5 L-6,4 L-5,4 L-5,3 L-4,3 L-4,2 L-3,2 L-3,1 L0,1 Z " fill="#010101" transform="translate(31,16)"/>
<path d="M0,0 L1,0 L1,1 L4,1 L4,2 L10,2 L10,1 L13,1 L13,0 L14,0 L14,4 L13,4 L13,7 L12,7 L12,9 L13,9 L13,12 L14,12 L14,15 L12,15 L12,14 L9,14 L9,13 L5,13 L5,14 L2,14 L2,15 L0,15 L0,11 L1,11 L1,4 L0,4 Z " fill="#010101" transform="translate(119,172)"/>
<path d="M0,0 L5,0 L5,1 L6,1 L6,2 L7,2 L7,7 L6,7 L6,8 L5,8 L5,9 L3,9 L3,10 L2,10 L2,9 L0,9 L0,8 L-1,8 L-1,7 L-2,7 L-2,3 L-1,3 L-1,1 L0,1 Z " fill="#C1F37A" transform="translate(168,171)"/>
<path d="M0,0 L2,0 L2,1 L3,1 L3,2 L4,2 L4,3 L5,3 L5,4 L6,4 L6,5 L7,5 L7,6 L8,6 L8,7 L9,7 L9,8 L11,8 L11,9 L12,9 L12,10 L13,10 L13,11 L14,11 L14,12 L16,12 L16,13 L17,13 L17,14 L18,14 L18,15 L19,15 L19,16 L21,16 L21,17 L22,17 L22,18 L23,18 L23,19 L21,19 L21,18 L20,18 L20,17 L18,17 L18,16 L17,16 L17,15 L16,15 L16,14 L15,14 L15,13 L13,13 L13,12 L12,12 L12,11 L11,11 L11,10 L10,10 L10,9 L8,9 L8,8 L7,8 L7,7 L6,7 L6,6 L5,6 L5,5 L4,5 L4,4 L3,4 L3,3 L2,3 L2,2 L1,2 L1,1 L0,1 Z " fill="#3B3A3A" transform="translate(34,86)"/>
<path d="M0,0 L2,0 L2,1 L3,1 L3,2 L1,2 L1,1 L0,1 Z " fill="#393839" transform="translate(171,120)"/>
<path d="M0,0 L2,0 L2,2 L1,2 L1,1 L0,1 Z " fill="#3D3D3D" transform="translate(32,84)"/>
<path d="M0,0 L2,0 L2,2 L1,2 L1,1 L0,1 Z " fill="#2A2A2A" transform="translate(40,69)"/>
</svg>
